<svg width="64" height="64" viewBox="0 0 64 64" fill="none" xmlns="http://www.w3.org/2000/svg">
  <g fill="hsl(142, 55%, 20%)">
    <path d="M32 30c0-6-4-10-9-10-4 0-7 3-7 7 0 5 5 9 11 10 3 .5 5-4 5-7z"/>
    <path d="M32 30c0-6 4-10 9-10 4 0 7 3 7 7 0 5-5 9-11 10-3 .5-5-4-5-7z"/>
    <path d="M32 34c-6 0-10 4-10 9 0 4 3 7 7 7 5 0 9-5 10-11 .5-3-4-5-7-5z"/>
    <path d="M32 34c6 0 10 4 10 9 0 4-3 7-7 7-5 0-9-5-10-11-.5-3 4-5 7-5z"/>
  </g>
  <path d="M32 33c1 6 0 14-4 22" stroke="hsl(142, 55%, 20%)" stroke-width="3" stroke-linecap="round" fill="none"/>
</svg>
